<svg width="875" height="129" viewBox="0 0 875 129" fill="none" xmlns="http://www.w3.org/2000/svg">
<path d="M126.678 11.79C127.542 13.41 128.028 14.868 128.136 16.164C128.352 17.46 128.46 19.35 128.46 21.834V111.744C128.46 119.196 126.408 123.57 122.304 124.866C120.252 125.514 117.66 125.838 114.528 125.838C111.396 125.838 108.912 125.568 107.076 125.028C105.24 124.488 103.836 123.84 102.864 123.084C101.892 122.328 101.136 121.248 100.596 119.844C100.056 118.008 99.786 115.2 99.786 111.42V57.15C97.086 60.498 93.144 65.844 87.96 73.188C82.776 80.424 79.482 84.96 78.078 86.796C76.674 88.632 75.702 89.928 75.162 90.684C74.622 91.332 73.272 92.304 71.112 93.6C69.06 94.788 66.792 95.382 64.308 95.382C61.932 95.382 59.718 94.842 57.666 93.762C55.722 92.574 54.318 91.44 53.454 90.36L52.158 88.578C49.998 85.878 45.732 80.154 39.36 71.406C32.988 62.55 29.532 57.798 28.992 57.15V111.744C28.992 114.228 28.884 116.118 28.668 117.414C28.56 118.602 28.074 119.952 27.21 121.464C25.59 124.38 21.378 125.838 14.574 125.838C7.986 125.838 3.882 124.38 2.262 121.464C1.398 119.952 0.858 118.548 0.642 117.252C0.534 115.956 0.48 114.012 0.48 111.42V21.51C0.48 19.026 0.534 17.19 0.642 16.002C0.858 14.706 1.398 13.248 2.262 11.628C3.882 8.81999 8.094 7.41599 14.898 7.41599C17.814 7.41599 20.298 7.79399 22.35 8.55C24.51 9.19799 25.914 9.89999 26.562 10.656L27.534 11.628L64.308 59.904C82.668 35.604 94.926 19.566 101.082 11.79C102.918 8.87399 107.238 7.41599 114.042 7.41599C120.954 7.41599 125.166 8.87399 126.678 11.79ZM139.009 83.394C139.009 70.434 143.545 59.742 152.617 51.318C161.689 42.894 172.057 38.682 183.721 38.682C195.385 38.682 205.699 42.894 214.663 51.318C223.627 59.634 228.109 70.272 228.109 83.232C228.109 92.196 225.787 100.188 221.143 107.208C216.499 114.12 210.829 119.25 204.133 122.598C197.545 125.838 190.687 127.458 183.559 127.458C176.431 127.458 169.519 125.73 162.823 122.274C156.127 118.71 150.457 113.526 145.813 106.722C141.277 99.81 139.009 92.034 139.009 83.394ZM172.867 95.058C176.323 97.65 179.833 98.946 183.397 98.946C186.961 98.946 190.525 97.596 194.089 94.896C197.653 92.196 199.435 88.2 199.435 82.908C199.435 77.616 197.761 73.674 194.413 71.082C191.065 68.49 187.447 67.194 183.559 67.194C179.671 67.194 176.053 68.544 172.705 71.244C169.357 73.944 167.683 77.94 167.683 83.232C167.683 88.416 169.411 92.358 172.867 95.058ZM295.762 5.14799C296.626 3.52799 298.084 2.39399 300.136 1.746C302.188 1.09799 304.888 0.77399 308.236 0.77399C311.692 0.77399 314.446 1.09799 316.498 1.746C318.55 2.39399 319.954 3.52799 320.71 5.14799C321.574 6.768 322.06 8.226 322.168 9.52199C322.384 10.71 322.492 12.546 322.492 15.03V111.744C322.492 114.228 322.384 116.118 322.168 117.414C322.06 118.602 321.574 119.952 320.71 121.464C319.09 124.38 314.5 125.838 306.94 125.838C299.488 125.838 295.33 123.192 294.466 117.9C289.93 123.084 283.612 125.676 275.512 125.676C265.792 125.676 256.936 121.464 248.944 113.04C240.952 104.508 236.956 94.626 236.956 83.394C236.956 72.054 240.952 62.118 248.944 53.586C257.044 45.054 265.9 40.788 275.512 40.788C283.504 40.788 289.714 43.488 294.142 48.888V14.868C294.142 12.384 294.196 10.548 294.304 9.36C294.52 8.06399 295.006 6.65999 295.762 5.14799ZM269.518 93.114C272.326 96.03 275.728 97.488 279.724 97.488C283.72 97.488 287.014 96.03 289.606 93.114C292.306 90.198 293.656 87.012 293.656 83.556C293.656 79.992 292.36 76.698 289.768 73.674C287.284 70.65 283.882 69.138 279.562 69.138C275.242 69.138 271.786 70.65 269.194 73.674C266.602 76.59 265.306 79.83 265.306 83.394C265.306 86.958 266.71 90.198 269.518 93.114ZM417.692 73.188C417.692 79.776 416.018 84.69 412.67 87.93C409.43 91.062 405.812 92.628 401.816 92.628H363.422C363.422 95.652 365.204 98.19 368.768 100.242C372.332 102.294 375.896 103.32 379.46 103.32C385.724 103.32 390.638 102.672 394.202 101.376L395.984 100.728C398.576 99.54 400.736 98.946 402.464 98.946C405.92 98.946 408.89 101.376 411.374 106.236C412.778 109.152 413.48 111.636 413.48 113.688C413.48 123.3 401.978 128.106 378.974 128.106C370.982 128.106 363.854 126.756 357.59 124.056C351.434 121.248 346.628 117.576 343.172 113.04C336.368 104.292 332.966 94.518 332.966 83.718C332.966 70.11 337.34 59.256 346.088 51.156C354.944 42.948 365.96 38.844 379.136 38.844C394.148 38.844 405.164 44.136 412.184 54.72C415.856 60.336 417.692 66.492 417.692 73.188ZM383.51 77.886C387.614 77.886 389.666 76.158 389.666 72.702C389.666 70.218 388.694 68.22 386.75 66.708C384.914 65.196 382.214 64.44 378.65 64.44C375.194 64.44 371.738 65.898 368.282 68.814C364.826 71.622 363.098 74.646 363.098 77.886H383.51ZM428.909 118.386C426.857 117.09 425.831 115.038 425.831 112.23C425.831 109.422 427.883 105.156 431.987 99.432C433.175 97.596 435.065 96.678 437.657 96.678C440.357 96.678 443.975 98.028 448.511 100.728C453.047 103.32 457.151 104.616 460.823 104.616C467.411 104.616 470.705 103.32 470.705 100.728C470.705 98.676 467.087 97.164 459.851 96.192C453.047 95.22 446.297 92.682 439.601 88.578C436.469 86.634 433.877 83.61 431.825 79.506C429.773 75.294 428.747 70.326 428.747 64.602C428.747 47.538 440.465 39.006 463.901 39.006C471.569 39.006 479.453 40.842 487.553 44.514C491.333 46.242 493.223 48.402 493.223 50.994C493.223 53.586 492.035 56.772 489.659 60.552C487.283 64.332 484.853 66.222 482.369 66.222C481.073 66.222 478.643 65.412 475.079 63.792C471.623 62.172 467.843 61.362 463.739 61.362C457.367 61.362 454.181 62.55 454.181 64.926C454.181 68.166 457.853 70.272 465.197 71.244C472.325 72 479.237 74.052 485.933 77.4C489.065 78.912 491.657 81.558 493.709 85.338C495.869 89.01 496.949 93.654 496.949 99.27C496.949 104.886 495.869 109.692 493.709 113.688C491.657 117.576 488.741 120.492 484.961 122.436C478.049 125.784 469.355 127.458 458.879 127.458C448.511 127.458 438.521 124.434 428.909 118.386ZM554.562 69.3L544.032 68.652V91.008C544.032 93.924 544.464 96.03 545.328 97.326C546.3 98.622 548.028 99.27 550.512 99.27C553.104 99.27 555.048 99.378 556.344 99.594C557.748 99.702 559.206 100.188 560.718 101.052C563.202 102.456 564.444 106.074 564.444 111.906C564.444 118.71 562.932 122.868 559.908 124.38C558.288 125.136 556.83 125.622 555.534 125.838C554.346 125.946 552.564 126 550.188 126C538.956 126 530.424 123.462 524.592 118.386C518.76 113.31 515.844 104.724 515.844 92.628V68.652C513.792 68.976 511.578 69.138 509.202 69.138C506.826 69.138 504.828 68.22 503.208 66.384C501.696 64.548 500.94 61.416 500.94 56.988C500.94 52.56 501.21 49.374 501.75 47.43C502.29 45.378 503.046 43.92 504.018 43.056C505.746 41.652 507.906 40.95 510.498 40.95L515.844 41.598V24.912C515.844 22.428 515.898 20.592 516.006 19.404C516.222 18.216 516.762 16.92 517.626 15.516C519.03 12.816 523.188 11.466 530.1 11.466C537.444 11.466 541.818 13.464 543.222 17.46C543.762 19.188 544.032 21.942 544.032 25.722V41.598C548.784 41.166 552.348 40.95 554.724 40.95C557.208 40.95 559.044 41.058 560.232 41.274C561.528 41.382 562.986 41.868 564.606 42.732C567.414 44.136 568.818 48.294 568.818 55.206C568.818 62.01 567.36 66.168 564.444 67.68C562.824 68.436 561.366 68.922 560.07 69.138C558.882 69.246 557.046 69.3 554.562 69.3Z" fill="#E72F6C"/>
<path d="M592.181 7.092L622.151 7.25399C637.811 7.25399 651.581 12.924 663.461 24.264C675.341 35.496 681.281 49.374 681.281 65.898C681.281 82.314 675.449 96.408 663.785 108.18C652.229 119.952 638.189 125.838 621.665 125.838H592.019C585.431 125.838 581.327 124.488 579.707 121.788C578.411 119.52 577.763 116.064 577.763 111.42V21.348C577.763 18.756 577.817 16.866 577.925 15.678C578.141 14.49 578.681 13.086 579.545 11.466C581.057 8.55 585.269 7.092 592.181 7.092ZM622.151 97.164C629.927 97.164 636.947 94.302 643.211 88.578C649.475 82.746 652.607 75.456 652.607 66.708C652.607 57.96 649.529 50.67 643.373 44.838C637.325 38.898 630.197 35.928 621.989 35.928H606.437V97.164H622.151ZM774.124 73.188C774.124 79.776 772.45 84.69 769.102 87.93C765.862 91.062 762.244 92.628 758.248 92.628H719.854C719.854 95.652 721.636 98.19 725.2 100.242C728.764 102.294 732.328 103.32 735.892 103.32C742.156 103.32 747.07 102.672 750.634 101.376L752.416 100.728C755.008 99.54 757.168 98.946 758.896 98.946C762.352 98.946 765.322 101.376 767.806 106.236C769.21 109.152 769.912 111.636 769.912 113.688C769.912 123.3 758.41 128.106 735.406 128.106C727.414 128.106 720.286 126.756 714.022 124.056C707.866 121.248 703.06 117.576 699.604 113.04C692.8 104.292 689.398 94.518 689.398 83.718C689.398 70.11 693.772 59.256 702.52 51.156C711.376 42.948 722.392 38.844 735.568 38.844C750.58 38.844 761.596 44.136 768.616 54.72C772.288 60.336 774.124 66.492 774.124 73.188ZM739.942 77.886C744.046 77.886 746.098 76.158 746.098 72.702C746.098 70.218 745.126 68.22 743.182 66.708C741.346 65.196 738.646 64.44 735.082 64.44C731.626 64.44 728.17 65.898 724.714 68.814C721.258 71.622 719.53 74.646 719.53 77.886H739.942ZM865.811 42.57C871.427 45.918 874.235 49.482 874.235 53.262C874.235 55.422 873.155 58.392 870.995 62.172L837.461 119.682C836.381 121.518 834.653 123.192 832.277 124.704C829.901 126.108 827.525 126.81 825.149 126.81C822.881 126.81 820.667 126.27 818.507 125.19C816.455 124.002 814.997 122.814 814.133 121.626L812.675 119.844L778.979 62.172C776.819 58.608 775.739 55.692 775.739 53.424C775.739 49.536 778.547 45.918 784.163 42.57C788.267 40.194 791.507 39.006 793.883 39.006C796.259 39.006 798.095 39.762 799.391 41.274C800.795 42.678 802.253 44.838 803.765 47.754L824.987 88.578L846.209 47.754C847.397 45.702 848.261 44.244 848.801 43.38C849.449 42.408 850.421 41.49 851.717 40.626C853.013 39.654 854.741 39.168 856.901 39.168C859.061 39.168 862.031 40.302 865.811 42.57Z" fill="#010101"/>
</svg>
