<svg width="5391" height="801" viewBox="0 0 5391 801" fill="none" xmlns="http://www.w3.org/2000/svg">
<path d="M1023.81 169.753C1054.31 169.753 1080.2 173.846 1101.48 182.033C1122.97 190.015 1142.62 201.374 1160.43 216.11L1111 275.668C1099.33 266.049 1086.44 258.476 1072.32 252.95C1058.2 247.219 1042.85 244.354 1026.27 244.354C1008.46 244.354 992.191 249.471 977.455 259.704C962.719 269.733 950.951 285.697 942.15 307.596C933.349 329.291 928.949 357.535 928.949 392.328C928.949 443.495 938.159 480.744 956.579 504.076C975.204 527.203 999.047 538.767 1028.11 538.767C1049.4 538.767 1067.1 534.776 1081.22 526.794C1095.34 518.812 1108.34 510.114 1120.21 500.699L1165.95 559.029C1149.99 574.788 1130.34 588.296 1107.01 599.553C1083.68 610.81 1055.54 616.438 1022.58 616.438C984.107 616.438 949.927 607.944 920.046 590.957C890.369 573.765 867.037 548.591 850.05 515.435C833.267 482.074 824.876 441.039 824.876 392.328C824.876 344.845 833.574 304.526 850.971 271.37C868.572 238.214 892.416 213.04 922.502 195.848C952.588 178.451 986.358 169.753 1023.81 169.753ZM1356.36 269.221C1389.93 269.221 1418.48 276.384 1442.01 290.711C1465.55 305.038 1483.56 325.197 1496.05 351.19C1508.53 376.978 1514.77 407.269 1514.77 442.062C1514.77 496.503 1500.85 539.176 1473.02 570.081C1445.19 600.986 1406.3 616.438 1356.36 616.438C1306.42 616.438 1267.53 601.19 1239.7 570.695C1211.87 540.2 1197.95 497.527 1197.95 442.676C1197.95 408.087 1204.19 377.797 1216.68 351.804C1229.36 325.811 1247.48 305.549 1271.01 291.018C1294.76 276.487 1323.2 269.221 1356.36 269.221ZM1356.36 340.752C1336.51 340.752 1321.77 348.939 1312.15 365.312C1302.74 381.481 1298.03 407.269 1298.03 442.676C1298.03 478.697 1302.74 504.792 1312.15 520.961C1321.77 537.13 1336.51 545.214 1356.36 545.214C1376.21 545.214 1390.85 537.13 1400.26 520.961C1409.88 504.792 1414.69 478.493 1414.69 442.062C1414.69 406.859 1409.88 381.174 1400.26 365.005C1390.85 348.836 1376.21 340.752 1356.36 340.752ZM1768.73 140.281L1865.74 150.412V606H1779.78L1774.87 570.081C1765.86 582.77 1753.89 593.72 1738.95 602.93C1724.01 611.935 1705.9 616.438 1684.61 616.438C1657.59 616.438 1635.18 609.172 1617.38 594.641C1599.78 580.11 1586.57 559.848 1577.77 533.855C1569.18 507.658 1564.88 477.06 1564.88 442.062C1564.88 408.497 1570.1 378.718 1580.54 352.725C1590.98 326.732 1605.92 306.368 1625.36 291.632C1644.8 276.691 1667.93 269.221 1694.74 269.221C1724.01 269.221 1748.67 279.25 1768.73 299.307V140.281ZM1720.84 340.138C1704.05 340.138 1690.55 348.12 1680.31 364.084C1670.08 379.843 1664.96 406.041 1664.96 442.676C1664.96 469.487 1667.11 490.363 1671.41 505.304C1675.71 520.04 1681.64 530.376 1689.22 536.311C1696.79 542.246 1705.49 545.214 1715.31 545.214C1726.16 545.214 1735.98 541.837 1744.78 535.083C1753.79 528.329 1761.77 519.119 1768.73 507.453V366.847C1761.97 358.456 1754.81 351.906 1747.24 347.199C1739.67 342.492 1730.86 340.138 1720.84 340.138ZM2035.58 471.227C2038.85 497.834 2047.55 516.97 2061.67 528.636C2075.8 540.097 2093.19 545.828 2113.86 545.828C2128.8 545.828 2143.23 543.372 2157.15 538.46C2171.07 533.548 2184.47 526.999 2197.37 518.812L2236.36 571.616C2221.01 584.715 2202.38 595.46 2180.48 603.851C2158.79 612.242 2134.02 616.438 2106.19 616.438C2068.94 616.438 2037.73 609.07 2012.55 594.334C1987.38 579.393 1968.45 558.927 1955.76 532.934C1943.07 506.941 1936.72 477.06 1936.72 443.29C1936.72 411.157 1942.86 381.992 1955.14 355.795C1967.42 329.393 1985.33 308.415 2008.87 292.86C2032.61 277.101 2061.57 269.221 2095.75 269.221C2126.86 269.221 2153.77 275.873 2176.49 289.176C2199.41 302.479 2217.12 321.616 2229.6 346.585C2242.29 371.554 2248.64 401.538 2248.64 436.536C2248.64 442.062 2248.43 447.997 2248.02 454.342C2247.82 460.687 2247.41 466.315 2246.79 471.227H2035.58ZM2095.75 334.305C2078.35 334.305 2064.33 340.547 2053.69 353.032C2043.05 365.517 2036.6 385.472 2034.35 412.897H2154.08C2153.88 389.156 2149.27 370.122 2140.27 355.795C2131.26 341.468 2116.42 334.305 2095.75 334.305ZM2322.69 606V540.916H2365.67V344.436H2322.69V279.966H2439.66L2457.46 353.339C2469.13 325.3 2483.97 304.424 2501.98 290.711C2520.19 276.998 2542.4 270.142 2568.6 270.142C2579.65 270.142 2589.47 271.063 2598.07 272.905C2606.67 274.542 2614.75 276.896 2622.32 279.966L2604.21 416.274H2543.42V356.102C2525 359.377 2508.83 369.405 2494.92 386.188C2481 402.766 2470.26 423.233 2462.68 447.588V540.916H2527.15V606H2322.69ZM2998.77 318.955C2998.77 351.906 2991.71 379.127 2977.59 400.617C2963.47 422.107 2943.72 438.173 2918.34 448.816C2892.96 459.254 2863.49 464.473 2829.92 464.473H2783.87V606H2683.18V180.498H2817.03C2874.74 180.498 2919.46 191.959 2951.19 214.882C2982.91 237.805 2998.77 272.496 2998.77 318.955ZM2895.01 319.262C2895.01 274.645 2869.42 252.336 2818.26 252.336H2783.87V391.407H2823.47C2845.99 391.407 2863.49 385.676 2875.97 374.215C2888.66 362.549 2895.01 344.231 2895.01 319.262ZM3059.01 606V540.916H3101.99V344.436H3059.01V279.966H3175.98L3193.78 353.339C3205.45 325.3 3220.29 304.424 3238.3 290.711C3256.51 276.998 3278.72 270.142 3304.92 270.142C3315.97 270.142 3325.79 271.063 3334.39 272.905C3342.99 274.542 3351.07 276.896 3358.64 279.966L3340.53 416.274H3279.74V356.102C3261.32 359.377 3245.16 369.405 3231.24 386.188C3217.32 402.766 3206.58 423.233 3199 447.588V540.916H3263.47V606H3059.01ZM3565.32 269.221C3598.89 269.221 3627.44 276.384 3650.97 290.711C3674.51 305.038 3692.52 325.197 3705.01 351.19C3717.49 376.978 3723.73 407.269 3723.73 442.062C3723.73 496.503 3709.82 539.176 3681.98 570.081C3654.15 600.986 3615.26 616.438 3565.32 616.438C3515.38 616.438 3476.5 601.19 3448.66 570.695C3420.83 540.2 3406.91 497.527 3406.91 442.676C3406.91 408.087 3413.15 377.797 3425.64 351.804C3438.33 325.811 3456.44 305.549 3479.98 291.018C3503.72 276.487 3532.17 269.221 3565.32 269.221ZM3565.32 340.752C3545.47 340.752 3530.73 348.939 3521.11 365.312C3511.7 381.481 3506.99 407.269 3506.99 442.676C3506.99 478.697 3511.7 504.792 3521.11 520.961C3530.73 537.13 3545.47 545.214 3565.32 545.214C3585.17 545.214 3599.81 537.13 3609.22 520.961C3618.84 504.792 3623.65 478.493 3623.65 442.062C3623.65 406.859 3618.84 381.174 3609.22 365.005C3599.81 348.836 3585.17 340.752 3565.32 340.752ZM3972.78 269.221C4015.35 269.221 4045.84 284.776 4064.26 315.885C4082.68 346.994 4091.89 389.053 4091.89 442.062C4091.89 475.627 4086.98 505.611 4077.16 532.013C4067.33 558.21 4053.11 578.882 4034.48 594.027C4015.86 608.968 3993.24 616.438 3966.64 616.438C3934.91 616.438 3909.13 605.079 3889.27 582.361V731.87L3792.26 742.001V279.966H3878.22L3882.52 316.499C3895.82 299.512 3910.35 287.436 3926.11 280.273C3941.87 272.905 3957.43 269.221 3972.78 269.221ZM3942.69 340.752C3931.43 340.752 3921.51 344.129 3912.91 350.883C3904.32 357.637 3896.44 366.847 3889.27 378.513V516.049C3896.03 526.078 3903.09 533.446 3910.46 538.153C3918.03 542.86 3926.93 545.214 3937.17 545.214C3954.36 545.214 3967.76 537.437 3977.38 521.882C3987 506.123 3991.81 479.925 3991.81 443.29C3991.81 416.274 3989.87 395.398 3985.98 380.662C3982.09 365.721 3976.46 355.386 3969.09 349.655C3961.73 343.72 3952.92 340.752 3942.69 340.752ZM4257.43 140.895V312.201C4284.65 283.548 4316.58 269.221 4353.22 269.221C4382.28 269.221 4404.49 277.715 4419.84 294.702C4435.19 311.689 4442.86 335.635 4442.86 366.54V606H4345.85V393.556C4345.85 373.908 4343.6 360.195 4339.1 352.418C4334.8 344.641 4326.61 340.752 4314.54 340.752C4304.3 340.752 4294.48 344.334 4285.06 351.497C4275.85 358.456 4266.64 368.075 4257.43 380.355V606H4160.42V150.412L4257.43 140.895ZM4612.7 471.227C4615.97 497.834 4624.67 516.97 4638.79 528.636C4652.92 540.097 4670.31 545.828 4690.98 545.828C4705.93 545.828 4720.35 543.372 4734.27 538.46C4748.19 533.548 4761.59 526.999 4774.49 518.812L4813.48 571.616C4798.13 584.715 4779.5 595.46 4757.6 603.851C4735.91 612.242 4711.14 616.438 4683.31 616.438C4646.06 616.438 4614.85 609.07 4589.67 594.334C4564.5 579.393 4545.57 558.927 4532.88 532.934C4520.19 506.941 4513.85 477.06 4513.85 443.29C4513.85 411.157 4519.99 381.992 4532.27 355.795C4544.55 329.393 4562.45 308.415 4585.99 292.86C4609.73 277.101 4638.69 269.221 4672.87 269.221C4703.98 269.221 4730.89 275.873 4753.61 289.176C4776.54 302.479 4794.24 321.616 4806.72 346.585C4819.41 371.554 4825.76 401.538 4825.76 436.536C4825.76 442.062 4825.55 447.997 4825.14 454.342C4824.94 460.687 4824.53 466.315 4823.92 471.227H4612.7ZM4672.87 334.305C4655.47 334.305 4641.46 340.547 4630.81 353.032C4620.17 365.517 4613.72 385.472 4611.47 412.897H4731.2C4731 389.156 4726.39 370.122 4717.39 355.795C4708.38 341.468 4693.54 334.305 4672.87 334.305ZM5190.23 586.966C5177.54 595.153 5162.19 602.111 5144.18 607.842C5126.17 613.573 5105.91 616.438 5083.4 616.438C5040.83 616.438 5009.21 605.591 4988.53 583.896C4967.86 561.997 4957.53 532.32 4957.53 494.866V346.892H4889.07V279.966H4957.53V209.356L5054.54 197.69V279.966H5159.53L5150.02 346.892H5054.54V494.866C5054.54 511.035 5058.22 522.598 5065.59 529.557C5072.96 536.516 5084.73 539.995 5100.9 539.995C5112.36 539.995 5122.8 538.665 5132.21 536.004C5141.83 533.139 5150.43 529.557 5158 525.259L5190.23 586.966Z" fill="black"/>
<path d="M547.696 28.303C631.643 49.881 709.786 109.515 702.531 180.526C695.277 251.733 602.624 334.514 563.242 407.095C523.652 479.675 537.125 542.251 518.47 597.766C499.608 653.084 448.411 701.536 379.802 743.123C311.194 784.906 225.174 820.019 169.832 789.417C114.489 758.816 89.8231 662.696 59.5608 591.881C29.5057 521.262 -6.14578 475.948 0.901613 433.381C7.949 390.617 57.488 350.207 62.4626 269.976C67.23 189.746 27.433 69.4973 56.8662 24.3797C86.5067 -20.7379 185.377 9.27513 279.688 16.1409C374.206 23.0066 463.749 6.725 547.696 28.303Z" fill="#EC454F"/>
</svg>
